{
	"asset":{
		"generator":"Khronos glTF Blender I/O v4.0.44",
		"version":"2.0"
	},
	"extensionsUsed":[
		"KHR_materials_specular",
		"KHR_materials_ior"
	],
	"scene":0,
	"scenes":[
		{
			"name":"Scene",
			"nodes":[
				0,
				1,
				2,
				3,
				4,
				5,
				6,
				7,
				9,
				14,
				16
			]
		}
	],
	"nodes":[
		{
			"mesh":0,
			"name":"Tomato Slice",
			"rotation":[
				0.7071068286895752,
				0,
				0,
				0.7071068286895752
			],
			"scale":[
				4.5,
				4.5,
				3
			],
			"translation":[
				0.0003356934175826609,
				-0.16187378764152527,
				-0.5173147916793823
			]
		},
		{
			"mesh":1,
			"name":"Salad Slice",
			"rotation":[
				0.7071068286895752,
				0,
				0,
				0.7071068286895752
			],
			"scale":[
				3.75,
				3.75,
				3
			],
			"translation":[
				0.0003356934175826609,
				-0.07585051655769348,
				-0.5173147916793823
			]
		},
		{
			"mesh":2,
			"name":"Onion Slice",
			"rotation":[
				0.7071068286895752,
				0,
				0,
				0.7071068286895752
			],
			"scale":[
				3,
				3,
				3
			],
			"translation":[
				0.0003356934175826609,
				0.0966237485408783,
				-0.5173147916793823
			]
		},
		{
			"mesh":3,
			"name":"Cheese Slice C",
			"rotation":[
				0.7071068286895752,
				0,
				0,
				0.7071068286895752
			],
			"scale":[
				6,
				6,
				3
			],
			"translation":[
				0.0003356934175826609,
				0.05307352542877197,
				-0.5173147916793823
			]
		},
		{
			"mesh":4,
			"name":"Burger Bread A",
			"rotation":[
				0.7071068286895752,
				0,
				0,
				0.7071068286895752
			],
			"scale":[
				3,
				3,
				3
			],
			"translation":[
				0.0003356934175826609,
				0.10474467277526855,
				-0.5173147916793823
			]
		},
		{
			"mesh":5,
			"name":"Burger Bread  Down A",
			"rotation":[
				0.7071068286895752,
				0,
				0,
				0.7071068286895752
			],
			"scale":[
				3,
				3,
				3
			],
			"translation":[
				0.0003356934175826609,
				-0.6689380407333374,
				-0.5173147916793823
			]
		},
		{
			"mesh":6,
			"name":"Bacon Slice",
			"rotation":[
				0.7071068286895752,
				0,
				0,
				0.7071068286895752
			],
			"scale":[
				4.800000190734863,
				4.800000190734863,
				4.800000190734863
			],
			"translation":[
				0.0003356934175826609,
				-0.03760024905204773,
				-0.5173147916793823
			]
		},
		{
			"mesh":7,
			"name":"Cutlet B",
			"rotation":[
				0.7071068286895752,
				0,
				0,
				0.7071068286895752
			],
			"scale":[
				4.049999713897705,
				4.049999713897705,
				4.049999713897705
			],
			"translation":[
				0.0003356934175826609,
				-0.4102160632610321,
				-0.5173147916793823
			]
		},
		{
			"mesh":8,
			"name":"Mesh_0"
		},
		{
			"children":[
				8
			],
			"name":"Slider.1",
			"rotation":[
				0,
				0.7071069478988647,
				-0.7071066498756409,
				6.456969714463412e-08
			],
			"scale":[
				0.39000004529953003,
				0.39000004529953003,
				0.39000004529953003
			],
			"translation":[
				-0.001990661723539233,
				1.544627070426941,
				2.1302106380462646
			]
		},
		{
			"mesh":9,
			"name":"Mesh_1"
		},
		{
			"mesh":10,
			"name":"Mesh_2"
		},
		{
			"mesh":11,
			"name":"Mesh_3"
		},
		{
			"mesh":12,
			"name":"Mesh_4"
		},
		{
			"children":[
				10,
				11,
				12,
				13
			],
			"name":"Cup.2",
			"rotation":[
				-0.70710688829422,
				0,
				0,
				0.7071066498756409
			],
			"scale":[
				0.3900000751018524,
				0.3900001347064972,
				0.3900001347064972
			],
			"translation":[
				-0.001270599546842277,
				1.6172841787338257,
				2.426769256591797
			]
		},
		{
			"mesh":13,
			"name":"Mesh_5"
		},
		{
			"children":[
				15
			],
			"name":"Cap.3",
			"rotation":[
				-0.70710688829422,
				0,
				0,
				0.7071066498756409
			],
			"scale":[
				0.3900000751018524,
				0.3900001347064972,
				0.3900001347064972
			],
			"translation":[
				-0.001270599546842277,
				1.6172841787338257,
				2.426769256591797
			]
		}
	],
	"materials":[
		{
			"doubleSided":true,
			"name":"Material.001",
			"pbrMetallicRoughness":{
				"baseColorFactor":[
					0.8002356290817261,
					0.022618839517235756,
					0.02870096266269684,
					1
				],
				"metallicFactor":0,
				"roughnessFactor":1
			}
		},
		{
			"doubleSided":true,
			"name":"Material.002",
			"pbrMetallicRoughness":{
				"baseColorFactor":[
					0.06106382608413696,
					0.8000074625015259,
					0.06776904314756393,
					1
				],
				"metallicFactor":0,
				"roughnessFactor":1
			}
		},
		{
			"doubleSided":true,
			"extensions":{
				"KHR_materials_specular":{
					"specularFactor":0
				},
				"KHR_materials_ior":{
					"ior":1.4500000476837158
				}
			},
			"name":"Material.003",
			"pbrMetallicRoughness":{
				"metallicFactor":0
			}
		},
		{
			"doubleSided":true,
			"name":"Material.004",
			"pbrMetallicRoughness":{
				"baseColorFactor":[
					1,
					0.9499736428260803,
					0.006418487057089806,
					1
				],
				"metallicFactor":0,
				"roughnessFactor":1
			}
		},
		{
			"doubleSided":true,
			"name":"Material.005",
			"pbrMetallicRoughness":{
				"baseColorFactor":[
					0.8001565933227539,
					0.38713377714157104,
					0.1095428392291069,
					1
				],
				"metallicFactor":0,
				"roughnessFactor":1
			}
		},
		{
			"doubleSided":true,
			"name":"Material.007",
			"pbrMetallicRoughness":{
				"baseColorFactor":[
					0.18895640969276428,
					0.02562044933438301,
					0.02256380394101143,
					1
				],
				"metallicFactor":0,
				"roughnessFactor":1
			}
		},
		{
			"doubleSided":true,
			"name":"Material.008",
			"pbrMetallicRoughness":{
				"baseColorFactor":[
					0.06413419544696808,
					0.01304883323609829,
					0.006260675378143787,
					1
				],
				"metallicFactor":0,
				"roughnessFactor":1
			}
		},
		{
			"doubleSided":true,
			"name":"Material_0",
			"pbrMetallicRoughness":{}
		},
		{
			"doubleSided":true,
			"name":"Material_1",
			"pbrMetallicRoughness":{}
		},
		{
			"doubleSided":true,
			"name":"Material_2",
			"pbrMetallicRoughness":{}
		},
		{
			"doubleSided":true,
			"name":"Material_3",
			"pbrMetallicRoughness":{}
		},
		{
			"doubleSided":true,
			"name":"Material_4",
			"pbrMetallicRoughness":{
				"baseColorFactor":[
					0.800000011920929,
					0.800000011920929,
					0.800000011920929,
					1
				],
				"metallicFactor":0,
				"roughnessFactor":0.4000000059604645
			}
		},
		{
			"doubleSided":true,
			"name":"Material_5",
			"pbrMetallicRoughness":{
				"baseColorFactor":[
					0,
					0,
					0,
					1
				],
				"metallicFactor":0,
				"roughnessFactor":0.4000000059604645
			}
		}
	],
	"meshes":[
		{
			"name":"Tomato Slice",
			"primitives":[
				{
					"attributes":{
						"POSITION":0,
						"NORMAL":1,
						"TEXCOORD_0":2
					},
					"indices":3,
					"material":0
				}
			]
		},
		{
			"name":"Salad Slice",
			"primitives":[
				{
					"attributes":{
						"POSITION":4,
						"NORMAL":5,
						"TEXCOORD_0":6
					},
					"indices":7,
					"material":1
				}
			]
		},
		{
			"name":"Onion Slice.003",
			"primitives":[
				{
					"attributes":{
						"POSITION":8,
						"NORMAL":9,
						"TEXCOORD_0":10
					},
					"indices":11,
					"material":2
				}
			]
		},
		{
			"name":"Cheese Slice C",
			"primitives":[
				{
					"attributes":{
						"POSITION":12,
						"NORMAL":13,
						"TEXCOORD_0":14
					},
					"indices":15,
					"material":3
				}
			]
		},
		{
			"name":"Burger Bread A",
			"primitives":[
				{
					"attributes":{
						"POSITION":16,
						"NORMAL":17,
						"TEXCOORD_0":18
					},
					"indices":19,
					"material":4
				}
			]
		},
		{
			"name":"Burger Bread  Down A",
			"primitives":[
				{
					"attributes":{
						"POSITION":20,
						"NORMAL":21,
						"TEXCOORD_0":22
					},
					"indices":23,
					"material":4
				}
			]
		},
		{
			"name":"Bacon Slice",
			"primitives":[
				{
					"attributes":{
						"POSITION":24,
						"NORMAL":25,
						"TEXCOORD_0":26
					},
					"indices":27,
					"material":5
				}
			]
		},
		{
			"name":"Cutlet B",
			"primitives":[
				{
					"attributes":{
						"POSITION":28,
						"NORMAL":29,
						"TEXCOORD_0":30
					},
					"indices":31,
					"material":6
				}
			]
		},
		{
			"name":"Mesh_0",
			"primitives":[
				{
					"attributes":{
						"POSITION":32,
						"NORMAL":33,
						"TEXCOORD_0":34
					},
					"indices":35,
					"material":7
				}
			]
		},
		{
			"name":"Mesh_1",
			"primitives":[
				{
					"attributes":{
						"POSITION":36,
						"NORMAL":37,
						"TEXCOORD_0":38
					},
					"indices":39,
					"material":8
				}
			]
		},
		{
			"name":"Mesh_2",
			"primitives":[
				{
					"attributes":{
						"POSITION":40,
						"NORMAL":41,
						"TEXCOORD_0":42
					},
					"indices":43,
					"material":9
				}
			]
		},
		{
			"name":"Mesh_3",
			"primitives":[
				{
					"attributes":{
						"POSITION":44,
						"NORMAL":45,
						"TEXCOORD_0":46
					},
					"indices":47,
					"material":10
				}
			]
		},
		{
			"name":"Mesh_4",
			"primitives":[
				{
					"attributes":{
						"POSITION":48,
						"NORMAL":49,
						"TEXCOORD_0":50
					},
					"indices":51,
					"material":11
				}
			]
		},
		{
			"name":"Mesh_5",
			"primitives":[
				{
					"attributes":{
						"POSITION":52,
						"NORMAL":53,
						"TEXCOORD_0":54
					},
					"indices":55,
					"material":12
				}
			]
		}
	],
	"accessors":[
		{
			"bufferView":0,
			"componentType":5126,
			"count":849,
			"max":[
				0.19621828198432922,
				0.19621828198432922,
				8.576973797858045e-09
			],
			"min":[
				-0.19621828198432922,
				-0.19621828198432922,
				-0.02698451653122902
			],
			"type":"VEC3"
		},
		{
			"bufferView":1,
			"componentType":5126,
			"count":849,
			"type":"VEC3"
		},
		{
			"bufferView":2,
			"componentType":5126,
			"count":849,
			"type":"VEC2"
		},
		{
			"bufferView":3,
			"componentType":5123,
			"count":2484,
			"type":"SCALAR"
		},
		{
			"bufferView":4,
			"componentType":5126,
			"count":894,
			"max":[
				0.27128809690475464,
				0.42248445749282837,
				1.7165243448857836e-08
			],
			"min":[
				-0.27792882919311523,
				-0.39269500970840454,
				-0.007359539158642292
			],
			"type":"VEC3"
		},
		{
			"bufferView":5,
			"componentType":5126,
			"count":894,
			"type":"VEC3"
		},
		{
			"bufferView":6,
			"componentType":5126,
			"count":894,
			"type":"VEC2"
		},
		{
			"bufferView":7,
			"componentType":5123,
			"count":2676,
			"type":"SCALAR"
		},
		{
			"bufferView":8,
			"componentType":5126,
			"count":266,
			"max":[
				0.1500975638628006,
				0.15164105594158173,
				6.628440907263666e-09
			],
			"min":[
				-0.1500975787639618,
				-0.15164105594158173,
				-0.012689892202615738
			],
			"type":"VEC3"
		},
		{
			"bufferView":9,
			"componentType":5126,
			"count":266,
			"type":"VEC3"
		},
		{
			"bufferView":10,
			"componentType":5126,
			"count":266,
			"type":"VEC2"
		},
		{
			"bufferView":11,
			"componentType":5123,
			"count":792,
			"type":"SCALAR"
		},
		{
			"bufferView":12,
			"componentType":5126,
			"count":408,
			"max":[
				0.1844128519296646,
				0.18441306054592133,
				0.006305319722741842
			],
			"min":[
				-0.1844135820865631,
				-0.18441303074359894,
				-0.006305315997451544
			],
			"type":"VEC3"
		},
		{
			"bufferView":13,
			"componentType":5126,
			"count":408,
			"type":"VEC3"
		},
		{
			"bufferView":14,
			"componentType":5126,
			"count":408,
			"type":"VEC2"
		},
		{
			"bufferView":15,
			"componentType":5123,
			"count":1212,
			"type":"SCALAR"
		},
		{
			"bufferView":16,
			"componentType":5126,
			"count":4939,
			"max":[
				0.37491151690483093,
				0.37491151690483093,
				1.638790436686577e-08
			],
			"min":[
				-0.3749115467071533,
				-0.3749115467071533,
				-0.2624523937702179
			],
			"type":"VEC3"
		},
		{
			"bufferView":17,
			"componentType":5126,
			"count":4939,
			"type":"VEC3"
		},
		{
			"bufferView":18,
			"componentType":5126,
			"count":4939,
			"type":"VEC2"
		},
		{
			"bufferView":19,
			"componentType":5123,
			"count":23526,
			"type":"SCALAR"
		},
		{
			"bufferView":20,
			"componentType":5126,
			"count":354,
			"max":[
				0.37303245067596436,
				0.3730325400829315,
				1.4021669159092198e-08
			],
			"min":[
				-0.3730326294898987,
				-0.3730325400829315,
				-0.10159699618816376
			],
			"type":"VEC3"
		},
		{
			"bufferView":21,
			"componentType":5126,
			"count":354,
			"type":"VEC3"
		},
		{
			"bufferView":22,
			"componentType":5126,
			"count":354,
			"type":"VEC2"
		},
		{
			"bufferView":23,
			"componentType":5123,
			"count":1140,
			"type":"SCALAR"
		},
		{
			"bufferView":24,
			"componentType":5126,
			"count":464,
			"max":[
				0.09616068005561829,
				0.3503848612308502,
				1.4965237937758502e-08
			],
			"min":[
				-0.09260432422161102,
				-0.34236472845077515,
				-0.009959512390196323
			],
			"type":"VEC3"
		},
		{
			"bufferView":25,
			"componentType":5126,
			"count":464,
			"type":"VEC3"
		},
		{
			"bufferView":26,
			"componentType":5126,
			"count":464,
			"type":"VEC2"
		},
		{
			"bufferView":27,
			"componentType":5123,
			"count":1284,
			"type":"SCALAR"
		},
		{
			"bufferView":28,
			"componentType":5126,
			"count":1410,
			"max":[
				0.2785983085632324,
				0.2785983085632324,
				4.032583156288183e-09
			],
			"min":[
				-0.2785983085632324,
				-0.2785983085632324,
				-0.06448296457529068
			],
			"type":"VEC3"
		},
		{
			"bufferView":29,
			"componentType":5126,
			"count":1410,
			"type":"VEC3"
		},
		{
			"bufferView":30,
			"componentType":5126,
			"count":1410,
			"type":"VEC2"
		},
		{
			"bufferView":31,
			"componentType":5123,
			"count":4404,
			"type":"SCALAR"
		},
		{
			"bufferView":32,
			"componentType":5126,
			"count":1017,
			"max":[
				0.27369508147239685,
				0.4143478274345398,
				0.3771234154701233
			],
			"min":[
				-0.27369508147239685,
				-2.027088165283203,
				-0.12357871979475021
			],
			"type":"VEC3"
		},
		{
			"bufferView":33,
			"componentType":5126,
			"count":1017,
			"type":"VEC3"
		},
		{
			"bufferView":34,
			"componentType":5126,
			"count":1017,
			"type":"VEC2"
		},
		{
			"bufferView":35,
			"componentType":5123,
			"count":2184,
			"type":"SCALAR"
		},
		{
			"bufferView":36,
			"componentType":5126,
			"count":3351,
			"max":[
				1.684436559677124,
				1.658846378326416,
				-0.6785875558853149
			],
			"min":[
				-1.684436321258545,
				-1.658846378326416,
				-5.458221912384033
			],
			"type":"VEC3"
		},
		{
			"bufferView":37,
			"componentType":5126,
			"count":3351,
			"type":"VEC3"
		},
		{
			"bufferView":38,
			"componentType":5126,
			"count":3351,
			"type":"VEC2"
		},
		{
			"bufferView":39,
			"componentType":5123,
			"count":5292,
			"type":"SCALAR"
		},
		{
			"bufferView":40,
			"componentType":5126,
			"count":337,
			"max":[
				1.5760672092437744,
				1.5521234273910522,
				-1.0966711044311523
			],
			"min":[
				-1.5760669708251953,
				-1.5521234273910522,
				-5.6117472648620605
			],
			"type":"VEC3"
		},
		{
			"bufferView":41,
			"componentType":5126,
			"count":337,
			"type":"VEC3"
		},
		{
			"bufferView":42,
			"componentType":5126,
			"count":337,
			"type":"VEC2"
		},
		{
			"bufferView":43,
			"componentType":5123,
			"count":864,
			"type":"SCALAR"
		},
		{
			"bufferView":44,
			"componentType":5126,
			"count":274,
			"max":[
				1.0980175733566284,
				1.0813385248184204,
				-5.6117472648620605
			],
			"min":[
				-1.098017692565918,
				-1.0813344717025757,
				-5.65423059463501
			],
			"type":"VEC3"
		},
		{
			"bufferView":45,
			"componentType":5126,
			"count":274,
			"type":"VEC3"
		},
		{
			"bufferView":46,
			"componentType":5126,
			"count":274,
			"type":"VEC2"
		},
		{
			"bufferView":47,
			"componentType":5123,
			"count":486,
			"type":"SCALAR"
		},
		{
			"bufferView":48,
			"componentType":5126,
			"count":696,
			"max":[
				1.6808154582977295,
				1.6552801132202148,
				-1.074829339981079
			],
			"min":[
				-1.6808152198791504,
				-1.655280351638794,
				-5.652320384979248
			],
			"type":"VEC3"
		},
		{
			"bufferView":49,
			"componentType":5126,
			"count":696,
			"type":"VEC3"
		},
		{
			"bufferView":50,
			"componentType":5126,
			"count":696,
			"type":"VEC2"
		},
		{
			"bufferView":51,
			"componentType":5123,
			"count":1296,
			"type":"SCALAR"
		},
		{
			"bufferView":52,
			"componentType":5126,
			"count":5872,
			"max":[
				1.7020196914672852,
				1.6761622428894043,
				0
			],
			"min":[
				-1.702019453048706,
				-1.6761623620986938,
				-0.9842519760131836
			],
			"type":"VEC3"
		},
		{
			"bufferView":53,
			"componentType":5126,
			"count":5872,
			"type":"VEC3"
		},
		{
			"bufferView":54,
			"componentType":5126,
			"count":5872,
			"type":"VEC2"
		},
		{
			"bufferView":55,
			"componentType":5123,
			"count":9720,
			"type":"SCALAR"
		}
	],
	"bufferViews":[
		{
			"buffer":0,
			"byteLength":10188,
			"byteOffset":0,
			"target":34962
		},
		{
			"buffer":0,
			"byteLength":10188,
			"byteOffset":10188,
			"target":34962
		},
		{
			"buffer":0,
			"byteLength":6792,
			"byteOffset":20376,
			"target":34962
		},
		{
			"buffer":0,
			"byteLength":4968,
			"byteOffset":27168,
			"target":34963
		},
		{
			"buffer":0,
			"byteLength":10728,
			"byteOffset":32136,
			"target":34962
		},
		{
			"buffer":0,
			"byteLength":10728,
			"byteOffset":42864,
			"target":34962
		},
		{
			"buffer":0,
			"byteLength":7152,
			"byteOffset":53592,
			"target":34962
		},
		{
			"buffer":0,
			"byteLength":5352,
			"byteOffset":60744,
			"target":34963
		},
		{
			"buffer":0,
			"byteLength":3192,
			"byteOffset":66096,
			"target":34962
		},
		{
			"buffer":0,
			"byteLength":3192,
			"byteOffset":69288,
			"target":34962
		},
		{
			"buffer":0,
			"byteLength":2128,
			"byteOffset":72480,
			"target":34962
		},
		{
			"buffer":0,
			"byteLength":1584,
			"byteOffset":74608,
			"target":34963
		},
		{
			"buffer":0,
			"byteLength":4896,
			"byteOffset":76192,
			"target":34962
		},
		{
			"buffer":0,
			"byteLength":4896,
			"byteOffset":81088,
			"target":34962
		},
		{
			"buffer":0,
			"byteLength":3264,
			"byteOffset":85984,
			"target":34962
		},
		{
			"buffer":0,
			"byteLength":2424,
			"byteOffset":89248,
			"target":34963
		},
		{
			"buffer":0,
			"byteLength":59268,
			"byteOffset":91672,
			"target":34962
		},
		{
			"buffer":0,
			"byteLength":59268,
			"byteOffset":150940,
			"target":34962
		},
		{
			"buffer":0,
			"byteLength":39512,
			"byteOffset":210208,
			"target":34962
		},
		{
			"buffer":0,
			"byteLength":47052,
			"byteOffset":249720,
			"target":34963
		},
		{
			"buffer":0,
			"byteLength":4248,
			"byteOffset":296772,
			"target":34962
		},
		{
			"buffer":0,
			"byteLength":4248,
			"byteOffset":301020,
			"target":34962
		},
		{
			"buffer":0,
			"byteLength":2832,
			"byteOffset":305268,
			"target":34962
		},
		{
			"buffer":0,
			"byteLength":2280,
			"byteOffset":308100,
			"target":34963
		},
		{
			"buffer":0,
			"byteLength":5568,
			"byteOffset":310380,
			"target":34962
		},
		{
			"buffer":0,
			"byteLength":5568,
			"byteOffset":315948,
			"target":34962
		},
		{
			"buffer":0,
			"byteLength":3712,
			"byteOffset":321516,
			"target":34962
		},
		{
			"buffer":0,
			"byteLength":2568,
			"byteOffset":325228,
			"target":34963
		},
		{
			"buffer":0,
			"byteLength":16920,
			"byteOffset":327796,
			"target":34962
		},
		{
			"buffer":0,
			"byteLength":16920,
			"byteOffset":344716,
			"target":34962
		},
		{
			"buffer":0,
			"byteLength":11280,
			"byteOffset":361636,
			"target":34962
		},
		{
			"buffer":0,
			"byteLength":8808,
			"byteOffset":372916,
			"target":34963
		},
		{
			"buffer":0,
			"byteLength":12204,
			"byteOffset":381724,
			"target":34962
		},
		{
			"buffer":0,
			"byteLength":12204,
			"byteOffset":393928,
			"target":34962
		},
		{
			"buffer":0,
			"byteLength":8136,
			"byteOffset":406132,
			"target":34962
		},
		{
			"buffer":0,
			"byteLength":4368,
			"byteOffset":414268,
			"target":34963
		},
		{
			"buffer":0,
			"byteLength":40212,
			"byteOffset":418636,
			"target":34962
		},
		{
			"buffer":0,
			"byteLength":40212,
			"byteOffset":458848,
			"target":34962
		},
		{
			"buffer":0,
			"byteLength":26808,
			"byteOffset":499060,
			"target":34962
		},
		{
			"buffer":0,
			"byteLength":10584,
			"byteOffset":525868,
			"target":34963
		},
		{
			"buffer":0,
			"byteLength":4044,
			"byteOffset":536452,
			"target":34962
		},
		{
			"buffer":0,
			"byteLength":4044,
			"byteOffset":540496,
			"target":34962
		},
		{
			"buffer":0,
			"byteLength":2696,
			"byteOffset":544540,
			"target":34962
		},
		{
			"buffer":0,
			"byteLength":1728,
			"byteOffset":547236,
			"target":34963
		},
		{
			"buffer":0,
			"byteLength":3288,
			"byteOffset":548964,
			"target":34962
		},
		{
			"buffer":0,
			"byteLength":3288,
			"byteOffset":552252,
			"target":34962
		},
		{
			"buffer":0,
			"byteLength":2192,
			"byteOffset":555540,
			"target":34962
		},
		{
			"buffer":0,
			"byteLength":972,
			"byteOffset":557732,
			"target":34963
		},
		{
			"buffer":0,
			"byteLength":8352,
			"byteOffset":558704,
			"target":34962
		},
		{
			"buffer":0,
			"byteLength":8352,
			"byteOffset":567056,
			"target":34962
		},
		{
			"buffer":0,
			"byteLength":5568,
			"byteOffset":575408,
			"target":34962
		},
		{
			"buffer":0,
			"byteLength":2592,
			"byteOffset":580976,
			"target":34963
		},
		{
			"buffer":0,
			"byteLength":70464,
			"byteOffset":583568,
			"target":34962
		},
		{
			"buffer":0,
			"byteLength":70464,
			"byteOffset":654032,
			"target":34962
		},
		{
			"buffer":0,
			"byteLength":46976,
			"byteOffset":724496,
			"target":34962
		},
		{
			"buffer":0,
			"byteLength":19440,
			"byteOffset":771472,
			"target":34963
		}
	],
	"buffers":[
		{
			"byteLength":790912,
			"uri":"burger.bin"
		}
	]
}
