{
	"asset":{
		"generator":"Khronos glTF Blender I/O v4.0.44",
		"version":"2.0"
	},
	"scene":0,
	"scenes":[
		{
			"name":"Scene",
			"nodes":[
				0,
				1,
				2,
				3
			]
		}
	],
	"nodes":[
		{
			"mesh":0,
			"name":"Mesh_0"
		},
		{
			"mesh":1,
			"name":"Mesh_1"
		},
		{
			"mesh":2,
			"name":"Mesh_2"
		},
		{
			"mesh":3,
			"name":"Icosphere"
		}
	],
	"materials":[
		{
			"doubleSided":true,
			"name":"Material_0",
			"pbrMetallicRoughness":{}
		},
		{
			"doubleSided":true,
			"name":"Material_1",
			"pbrMetallicRoughness":{}
		},
		{
			"doubleSided":true,
			"name":"Material_2",
			"pbrMetallicRoughness":{}
		}
	],
	"meshes":[
		{
			"name":"Mesh_0",
			"primitives":[
				{
					"attributes":{
						"POSITION":0,
						"NORMAL":1,
						"TEXCOORD_0":2
					},
					"indices":3,
					"material":0
				}
			]
		},
		{
			"name":"Mesh_1",
			"primitives":[
				{
					"attributes":{
						"POSITION":4,
						"NORMAL":5,
						"TEXCOORD_0":6
					},
					"indices":7,
					"material":1
				}
			]
		},
		{
			"name":"Mesh_2",
			"primitives":[
				{
					"attributes":{
						"POSITION":8,
						"NORMAL":9,
						"TEXCOORD_0":10
					},
					"indices":11,
					"material":2
				}
			]
		},
		{
			"name":"Icosphere",
			"primitives":[
				{
					"attributes":{
						"POSITION":12,
						"NORMAL":13,
						"TEXCOORD_0":14
					},
					"indices":15
				}
			]
		}
	],
	"accessors":[
		{
			"bufferView":0,
			"componentType":5126,
			"count":13122,
			"max":[
				10.180298805236816,
				13.430465698242188,
				6.064924240112305
			],
			"min":[
				-10.180304527282715,
				0.41376399993896484,
				-9.54537582397461
			],
			"type":"VEC3"
		},
		{
			"bufferView":1,
			"componentType":5126,
			"count":13122,
			"type":"VEC3"
		},
		{
			"bufferView":2,
			"componentType":5126,
			"count":13122,
			"type":"VEC2"
		},
		{
			"bufferView":3,
			"componentType":5123,
			"count":13122,
			"type":"SCALAR"
		},
		{
			"bufferView":4,
			"componentType":5126,
			"count":360,
			"max":[
				4.183880805969238,
				13.430465698242188,
				-1.6332340240478516
			],
			"min":[
				-4.183880805969238,
				11.422255516052246,
				-5.137176513671875
			],
			"type":"VEC3"
		},
		{
			"bufferView":5,
			"componentType":5126,
			"count":360,
			"type":"VEC3"
		},
		{
			"bufferView":6,
			"componentType":5126,
			"count":360,
			"type":"VEC2"
		},
		{
			"bufferView":7,
			"componentType":5123,
			"count":360,
			"type":"SCALAR"
		},
		{
			"bufferView":8,
			"componentType":5126,
			"count":156,
			"max":[
				2.7142210006713867,
				10.496116638183594,
				3.306428909301758
			],
			"min":[
				-2.7142205238342285,
				5.377912998199463,
				-0.9131917953491211
			],
			"type":"VEC3"
		},
		{
			"bufferView":9,
			"componentType":5126,
			"count":156,
			"type":"VEC3"
		},
		{
			"bufferView":10,
			"componentType":5126,
			"count":156,
			"type":"VEC2"
		},
		{
			"bufferView":11,
			"componentType":5123,
			"count":744,
			"type":"SCALAR"
		},
		{
			"bufferView":12,
			"componentType":5126,
			"count":240,
			"max":[
				0.9510578513145447,
				1,
				0.9999999403953552
			],
			"min":[
				-0.9510578513145447,
				-1,
				-0.9999999403953552
			],
			"type":"VEC3"
		},
		{
			"bufferView":13,
			"componentType":5126,
			"count":240,
			"type":"VEC3"
		},
		{
			"bufferView":14,
			"componentType":5126,
			"count":240,
			"type":"VEC2"
		},
		{
			"bufferView":15,
			"componentType":5123,
			"count":240,
			"type":"SCALAR"
		}
	],
	"bufferViews":[
		{
			"buffer":0,
			"byteLength":157464,
			"byteOffset":0,
			"target":34962
		},
		{
			"buffer":0,
			"byteLength":157464,
			"byteOffset":157464,
			"target":34962
		},
		{
			"buffer":0,
			"byteLength":104976,
			"byteOffset":314928,
			"target":34962
		},
		{
			"buffer":0,
			"byteLength":26244,
			"byteOffset":419904,
			"target":34963
		},
		{
			"buffer":0,
			"byteLength":4320,
			"byteOffset":446148,
			"target":34962
		},
		{
			"buffer":0,
			"byteLength":4320,
			"byteOffset":450468,
			"target":34962
		},
		{
			"buffer":0,
			"byteLength":2880,
			"byteOffset":454788,
			"target":34962
		},
		{
			"buffer":0,
			"byteLength":720,
			"byteOffset":457668,
			"target":34963
		},
		{
			"buffer":0,
			"byteLength":1872,
			"byteOffset":458388,
			"target":34962
		},
		{
			"buffer":0,
			"byteLength":1872,
			"byteOffset":460260,
			"target":34962
		},
		{
			"buffer":0,
			"byteLength":1248,
			"byteOffset":462132,
			"target":34962
		},
		{
			"buffer":0,
			"byteLength":1488,
			"byteOffset":463380,
			"target":34963
		},
		{
			"buffer":0,
			"byteLength":2880,
			"byteOffset":464868,
			"target":34962
		},
		{
			"buffer":0,
			"byteLength":2880,
			"byteOffset":467748,
			"target":34962
		},
		{
			"buffer":0,
			"byteLength":1920,
			"byteOffset":470628,
			"target":34962
		},
		{
			"buffer":0,
			"byteLength":480,
			"byteOffset":472548,
			"target":34963
		}
	],
	"buffers":[
		{
			"byteLength":473028,
			"uri":"Gengar.bin"
		}
	]
}
