{
	"asset":{
		"generator":"Khronos glTF Blender I/O v4.0.44",
		"version":"2.0"
	},
	"extensionsUsed":[
		"KHR_materials_unlit"
	],
	"scene":0,
	"scenes":[
		{
			"name":"Scene",
			"nodes":[
				0
			]
		}
	],
	"nodes":[
		{
			"mesh":0,
			"name":"Mesh_1"
		}
	],
	"materials":[
		{
			"doubleSided":true,
			"extensions":{
				"KHR_materials_unlit":{}
			},
			"name":"Material_1",
			"pbrMetallicRoughness":{
				"baseColorTexture":{
					"index":0
				},
				"metallicFactor":0,
				"roughnessFactor":0.9
			}
		},
		{
			"doubleSided":true,
			"extensions":{
				"KHR_materials_unlit":{}
			},
			"name":"Material_0",
			"pbrMetallicRoughness":{
				"baseColorTexture":{
					"index":1
				},
				"metallicFactor":0,
				"roughnessFactor":0.9
			}
		},
		{
			"doubleSided":true,
			"extensions":{
				"KHR_materials_unlit":{}
			},
			"name":"Material_2",
			"pbrMetallicRoughness":{
				"baseColorTexture":{
					"index":2
				},
				"metallicFactor":0,
				"roughnessFactor":0.9
			}
		}
	],
	"meshes":[
		{
			"name":"Mesh_1",
			"primitives":[
				{
					"attributes":{
						"POSITION":0,
						"NORMAL":1,
						"TEXCOORD_0":2
					},
					"indices":3,
					"material":0
				},
				{
					"attributes":{
						"POSITION":4,
						"NORMAL":5,
						"TEXCOORD_0":6
					},
					"indices":7,
					"material":1
				},
				{
					"attributes":{
						"POSITION":8,
						"NORMAL":9,
						"TEXCOORD_0":10
					},
					"indices":11,
					"material":2
				}
			]
		}
	],
	"textures":[
		{
			"sampler":0,
			"source":0
		},
		{
			"sampler":0,
			"source":1
		},
		{
			"sampler":0,
			"source":1
		}
	],
	"images":[
		{
			"mimeType":"image/png",
			"name":"Image_1",
			"uri":"Image_1.png"
		},
		{
			"mimeType":"image/png",
			"name":"Image_0",
			"uri":"Image_0.png"
		}
	],
	"accessors":[
		{
			"bufferView":0,
			"componentType":5126,
			"count":360,
			"max":[
				1.0459702014923096,
				1.7837564945220947,
				-0.4083085060119629
			],
			"min":[
				-1.0459702014923096,
				1.2817039489746094,
				-1.2842941284179688
			],
			"type":"VEC3"
		},
		{
			"bufferView":1,
			"componentType":5126,
			"count":360,
			"type":"VEC3"
		},
		{
			"bufferView":2,
			"componentType":5126,
			"count":360,
			"type":"VEC2"
		},
		{
			"bufferView":3,
			"componentType":5123,
			"count":360,
			"type":"SCALAR"
		},
		{
			"bufferView":4,
			"componentType":5126,
			"count":13122,
			"max":[
				2.545074701309204,
				1.7837564945220947,
				1.5162310600280762
			],
			"min":[
				-2.5450761318206787,
				-1.470418930053711,
				-2.3863439559936523
			],
			"type":"VEC3"
		},
		{
			"bufferView":5,
			"componentType":5126,
			"count":13122,
			"type":"VEC3"
		},
		{
			"bufferView":6,
			"componentType":5126,
			"count":13122,
			"type":"VEC2"
		},
		{
			"bufferView":7,
			"componentType":5123,
			"count":13122,
			"type":"SCALAR"
		},
		{
			"bufferView":8,
			"componentType":5126,
			"count":156,
			"max":[
				0.6785552501678467,
				1.0501692295074463,
				0.8266072273254395
			],
			"min":[
				-0.6785551309585571,
				-0.22938168048858643,
				-0.22829794883728027
			],
			"type":"VEC3"
		},
		{
			"bufferView":9,
			"componentType":5126,
			"count":156,
			"type":"VEC3"
		},
		{
			"bufferView":10,
			"componentType":5126,
			"count":156,
			"type":"VEC2"
		},
		{
			"bufferView":11,
			"componentType":5123,
			"count":744,
			"type":"SCALAR"
		}
	],
	"bufferViews":[
		{
			"buffer":0,
			"byteLength":4320,
			"byteOffset":0,
			"target":34962
		},
		{
			"buffer":0,
			"byteLength":4320,
			"byteOffset":4320,
			"target":34962
		},
		{
			"buffer":0,
			"byteLength":2880,
			"byteOffset":8640,
			"target":34962
		},
		{
			"buffer":0,
			"byteLength":720,
			"byteOffset":11520,
			"target":34963
		},
		{
			"buffer":0,
			"byteLength":157464,
			"byteOffset":12240,
			"target":34962
		},
		{
			"buffer":0,
			"byteLength":157464,
			"byteOffset":169704,
			"target":34962
		},
		{
			"buffer":0,
			"byteLength":104976,
			"byteOffset":327168,
			"target":34962
		},
		{
			"buffer":0,
			"byteLength":26244,
			"byteOffset":432144,
			"target":34963
		},
		{
			"buffer":0,
			"byteLength":1872,
			"byteOffset":458388,
			"target":34962
		},
		{
			"buffer":0,
			"byteLength":1872,
			"byteOffset":460260,
			"target":34962
		},
		{
			"buffer":0,
			"byteLength":1248,
			"byteOffset":462132,
			"target":34962
		},
		{
			"buffer":0,
			"byteLength":1488,
			"byteOffset":463380,
			"target":34963
		}
	],
	"samplers":[
		{
			"magFilter":9729,
			"minFilter":9987
		}
	],
	"buffers":[
		{
			"byteLength":464868,
			"uri":"Gengar.bin"
		}
	]
}
